<?xml version="1.0" encoding="utf-8"?>
<!-- Generator: Adobe Illustrator 21.0.0, SVG Export Plug-In . SVG Version: 6.00 Build 0)  -->
<svg version="1.1" id="Layer_1" xmlns="http://www.w3.org/2000/svg" xmlns:xlink="http://www.w3.org/1999/xlink" x="0px" y="0px"
	 viewBox="0 0 800 800" style="enable-background:new 0 0 800 800;" xml:space="preserve">
<path d="M161.8,70.1h470.3v91.6h134.4L736,253.4h-24.4v378.7c12.2,0,24.4,12.2,24.4,18.3v24.4h6.1c12.2,0,24.4,12.2,24.4,18.3v24.4
	H522.2v-12.2c0-12.2,12.2-18.3,24.4-18.3h6.1v-24.4c0-12.2,6.1-18.3,18.3-18.3V436.7c-6.1-85.5-79.4-146.6-164.9-146.6
	s-158.8,67.2-164.9,146.6v207.7c12.2,0,24.4,12.2,24.4,18.3v24.4h6.1c12.2,0,24.4,12.2,24.4,18.3v24.4H51.8v-24.4
	c0-12.2,12.2-18.3,24.4-18.3h6.1v-24.4c0-12.2,12.2-18.3,24.4-18.3V259.5H64l-30.5-97.7h128.3V70.1z"/>
<path d="M526.7,220L526.7,220L526.7,220L526.7,220L526.7,220z M270,220L270,220L270,220L270,220L270,220z M526.7,270L526.7,270
	L526.7,270L526.7,270L526.7,270z M600,270L600,270L600,270L600,270L600,270z M583.3,323.3L583.3,323.3L583.3,323.3L583.3,323.3
	L583.3,323.3z M570,323.3L570,323.3L570,323.3L570,323.3L570,323.3z M570,530L570,530L570,530L570,530L570,530z M583.3,553.3
	L583.3,553.3L583.3,553.3L583.3,553.3L583.3,553.3z M596.7,580L596.7,580L596.7,580L596.7,580L596.7,580z M463.3,580L463.3,580
	L463.3,580L463.3,580L463.3,580z M480,553.3L480,553.3L480,553.3L480,553.3L480,553.3z M486.7,530L486.7,530L486.7,530L486.7,530
	L486.7,530z M486.7,416.7L486.7,416.7L486.7,416.7L486.7,416.7L486.7,416.7z M306.7,416.7L306.7,416.7L306.7,416.7L306.7,416.7
	L306.7,416.7z M306.7,530L306.7,530L306.7,530L306.7,530L306.7,530z M320,553.3L320,553.3L320,553.3L320,553.3L320,553.3z
	 M333.3,580L333.3,580L333.3,580L333.3,580L333.3,580z M203.3,580L203.3,580L203.3,580L203.3,580L203.3,580z M216.7,553.3
	L216.7,553.3L216.7,553.3L216.7,553.3L216.7,553.3z M230,530L230,530L230,530L230,530L230,530z M230,323.3L230,323.3L230,323.3
	L230,323.3L230,323.3z M216.7,323.3L216.7,323.3L216.7,323.3L216.7,323.3L216.7,323.3z M200,270L200,270L200,270L200,270L200,270z
	 M270,270L270,270L270,270L270,270L270,270z M526.7,220H270v3.3L526.7,220L526.7,220z M526.7,270v-50h-3.3L526.7,270L526.7,270z
	 M600,270h-73.3v3.3L600,270L600,270z M583.3,323.3L600,270l0,0L583.3,323.3L583.3,323.3z M570,323.3h13.3V320L570,323.3L570,323.3z
	 M573.3,530V323.3H570L573.3,530L573.3,530z M583.3,540c0-6.7-6.7-13.3-13.3-13.3v3.3C576.7,530,583.3,533.3,583.3,540L583.3,540z
	 M583.3,553.3V540H580L583.3,553.3L583.3,553.3z M586.7,553.3L586.7,553.3L586.7,553.3L586.7,553.3L586.7,553.3z M596.7,566.7
	c0-6.7-6.7-13.3-13.3-13.3v3.3C590,556.7,596.7,560,596.7,566.7L596.7,566.7z M596.7,580v-13.3h-3.3L596.7,580L596.7,580z
	 M526.7,580h70v-3.3L526.7,580L526.7,580z M490,580h36.7v-3.3L490,580L490,580z M463.3,580h23.3v-3.3L463.3,580L463.3,580z
	 M463.3,566.7V580h3.3L463.3,566.7L463.3,566.7z M476.7,553.3c-6.7,0-13.3,6.7-13.3,13.3h3.3C466.7,560,470,556.7,476.7,553.3
	L476.7,553.3z M480,553.3L480,553.3L480,553.3L480,553.3L480,553.3z M476.7,540v13.3h3.3L476.7,540L476.7,540z M486.7,530
	c-6.7,0-10,6.7-10,13.3h3.3C480,536.7,483.3,530,486.7,530L486.7,530z M486.7,416.7V530h3.3L486.7,416.7L486.7,416.7z M396.7,333.3
	c46.7,0,86.7,36.7,90,80h3.3C483.3,370,446.7,333.3,396.7,333.3L396.7,333.3z M306.7,416.7c3.3-46.7,43.3-80,90-80v-3.3
	C350,333.3,310,370,306.7,416.7L306.7,416.7z M306.7,530V416.7l0,0V530L306.7,530z M320,540c0-3.3-3.3-6.7-6.7-6.7
	c-3.3-3.3-6.7-3.3-10-3.3v3.3c3.3,0,6.7,3.3,10,3.3C316.7,536.7,320,536.7,320,540L320,540z M320,553.3V540l0,0V553.3L320,553.3z
	 M323.3,553.3L323.3,553.3L323.3,553.3L323.3,553.3L323.3,553.3z M336.7,566.7c0-6.7-6.7-13.3-13.3-13.3v3.3
	C330,556.7,333.3,560,336.7,566.7L336.7,566.7z M336.7,580v-13.3h-3.3L336.7,580L336.7,580z M306.7,580h26.7v-3.3L306.7,580
	L306.7,580z M303.3,580L303.3,580L303.3,580L303.3,580L303.3,580z M270,580h36.7v-3.3L270,580L270,580z M203.3,580H270v-3.3
	L203.3,580L203.3,580z M203.3,566.7V580h3.3L203.3,566.7L203.3,566.7z M213.3,553.3c-6.7,0-13.3,6.7-13.3,13.3h3.3
	C203.3,560,210,556.7,213.3,553.3L213.3,553.3z M216.7,553.3L216.7,553.3L216.7,553.3L216.7,553.3L216.7,553.3z M216.7,540v13.3h3.3
	L216.7,540L216.7,540z M230,526.7c-6.7,0-13.3,6.7-13.3,13.3h3.3C216.7,533.3,223.3,530,230,526.7L230,526.7z M226.7,323.3V530h3.3
	L226.7,323.3L226.7,323.3z M216.7,323.3H230V320L216.7,323.3L216.7,323.3z M200,270l16.7,50l0,0L200,270L200,270z M270,270h-70v3.3
	L270,270L270,270z M266.7,220v50h3.3L266.7,220L266.7,220z"/>
</svg>
